<?xml version="1.0" standalone="no"?>
<!DOCTYPE svg PUBLIC "-//W3C//DTD SVG 20010904//EN"
 "http://www.w3.org/TR/2001/REC-SVG-20010904/DTD/svg10.dtd">
<svg version="1.0" xmlns="http://www.w3.org/2000/svg"
 width="24.000000pt" height="24.000000pt" viewBox="0 0 24.000000 24.000000"
 preserveAspectRatio="xMidYMid meet">

<g transform="translate(0.000000,24.000000) scale(0.100000,-0.100000)"
fill="#000000" stroke="none">
<path d="M22 217 c-19 -20 -22 -35 -22 -99 0 -71 2 -78 26 -97 21 -17 41 -21
96 -21 60 0 72 3 93 25 22 21 25 33 25 93 0 55 -4 75 -21 96 -19 24 -26 26
-98 26 -68 0 -80 -3 -99 -23z m178 -17 c29 -29 29 -131 0 -160 -29 -29 -131
-29 -160 0 -16 16 -20 33 -20 80 0 82 18 100 100 100 47 0 64 -4 80 -20z"/>
<path d="M98 125 c-3 -14 -1 -28 3 -31 5 -3 9 1 9 8 0 9 3 9 10 -2 14 -22 30
0 19 28 -11 30 -36 28 -41 -3z"/>
</g>
</svg>
